<?xml version="1.0" encoding="UTF-8" standalone="yes"?>
<!DOCTYPE svg PUBLIC "-//W3C//DTD SVG 1.1//EN" "http://www.w3.org/Graphics/SVG/1.1/DTD/svg11.dtd">

<svg width="500" height="500" viewBox="0 0 500 500" xmlns="http://www.w3.org/2000/svg" xmlns:xlink="http://www.w3.org/1999/xlink" version="1.1" baseProfile="full">
    <g transform="scale(1,-1) translate(0,-500)">
        <path d="M 50.425404 515.249380 L 831.903793 463.048284 C 840.720700 462.459334 847.390777 454.834379 846.801826 446.017472 L 818.275906 18.969147 C 817.686956 10.152239 810.062001 3.482162 801.245093 4.071113 L 19.766704 56.272208 C 10.949797 56.861159 4.279720 64.486113 4.868670 73.303021 L 33.394591 500.351346 C 33.983541 509.168253 41.608496 515.838330 50.425404 515.249380 Z" transform="scale(0.500000,0.500000) translate(106.000000,246.000000)" fill="#525252" opacity="1.000000"></path>
        <path d="M 20.779981 464.000000 L 803.999912 464.000000 C 812.836468 464.000000 819.999911 456.836556 819.999911 448.000000 L 819.999911 20.000000 C 819.999911 11.163444 812.836468 4.000000 803.999912 4.000000 L 20.779981 4.000000 C 11.943425 4.000000 4.779982 11.163444 4.779982 20.000000 L 4.779982 448.000000 C 4.779982 456.836556 11.943425 464.000000 20.779981 464.000000 Z" transform="scale(0.500000,0.500000) translate(104.000000,268.000000)" opacity="1.000000"></path>
        <path d="M 252.320075 425.720147 L 252.320075 394.551526 L 205.119553 394.551526 L 205.119553 372.009208 L 240.113044 372.009208 L 240.113044 340.840587 L 205.119553 340.840587 L 205.119553 301.533945 L 150.187911 301.533945 L 150.187911 425.720147 Z M 324.811335 413.513116 Q 324.811335 407.653740 320.579564 403.421969 Q 316.429174 399.190198 310.651179 399.190198 Q 304.791803 399.190198 300.560032 403.421969 Q 296.328262 407.653740 296.328262 413.513116 Q 296.328262 419.291111 300.560032 423.441501 Q 304.791803 427.673272 310.651179 427.673272 Q 316.429174 427.673272 320.579564 423.522882 Q 324.811335 419.535251 324.811335 413.513116 Z M 274.843886 399.515719 Q 279.482558 396.830172 286.237115 395.365329 Q 292.991673 393.900485 300.641413 393.900485 Q 307.802871 393.900485 314.150528 395.324638 Q 320.498184 396.748792 325.136856 399.515719 L 325.136856 301.533945 L 274.843886 301.533945 Z M 472.497910 301.533945 L 424.971867 301.533945 L 424.971867 359.151135 Q 424.971867 364.522229 422.774601 367.696057 Q 420.577336 370.869885 415.694523 370.869885 Q 413.660018 370.869885 411.137231 369.974703 Q 408.614445 369.079520 406.661320 367.696057 L 406.661320 301.533945 L 356.368349 301.533945 L 356.368349 399.515719 L 406.661320 399.515719 L 406.661320 387.227307 Q 413.660018 394.307386 420.862166 397.318454 Q 428.064315 400.329521 437.016138 400.329521 Q 454.675644 400.329521 463.546087 390.482516 Q 472.497910 380.635510 472.497910 363.220145 Z M 548.325759 349.222749 Q 548.325759 342.793712 551.906488 339.986095 Q 555.487218 337.178478 563.381098 337.178478 L 567.124588 337.178478 L 567.124588 359.232515 Q 565.496984 360.371838 563.218338 361.022880 Q 560.939692 361.673921 558.742426 361.673921 Q 554.185134 361.673921 551.255447 358.093192 Q 548.325759 354.512463 548.325759 349.222749 Z M 499.985914 351.338635 Q 499.985914 364.929130 506.252190 376.240979 Q 512.599846 387.552828 523.586175 393.900485 Q 534.653884 400.329521 548.162999 400.329521 Q 553.940994 400.329521 559.474848 399.190198 Q 564.764562 398.132256 567.124588 396.830172 L 567.124588 425.720147 L 617.498938 425.720147 L 617.498938 301.533945 L 556.789301 301.533945 Q 539.943597 301.533945 527.004144 307.718842 Q 514.064690 313.903738 506.984612 325.541108 Q 499.985914 337.178478 499.985914 351.338635 Z M 295.971304 263.363283 Q 295.971304 246.924480 283.275992 233.252605 Q 270.662059 219.499349 252.025991 216.488281 L 250.479767 217.546224 Q 253.083933 219.011068 255.321889 221.208333 Q 257.559845 223.405599 259.228139 226.131836 Q 260.896434 228.858073 261.995066 231.950521 Q 263.093699 235.042969 263.337840 238.379558 Q 241.690704 244.889975 241.690704 264.339845 Q 241.690704 276.384116 249.665964 284.603518 Q 257.722605 292.822919 269.197215 292.822919 Q 280.915965 292.822919 288.402945 284.522138 Q 295.971304 276.221356 295.971304 263.363283 Z M 440.972332 166.683592 L 393.446289 166.683592 L 393.446289 224.300782 Q 393.446289 229.671875 391.249024 232.845704 Q 389.051758 236.019532 384.168945 236.019532 Q 382.134440 236.019532 379.611653 235.124350 Q 377.088867 234.229167 375.135742 232.845704 L 375.135742 166.683592 L 324.842772 166.683592 L 324.842772 264.665366 L 375.135742 264.665366 L 375.135742 252.376954 Q 382.134440 259.457033 389.336589 262.468100 Q 396.538737 265.479168 405.490560 265.479168 Q 423.150066 265.479168 432.020509 255.632163 Q 440.972332 245.785157 440.972332 228.369792 Z M 522.252655 263.363283 Q 522.252655 246.924480 509.557342 233.252605 Q 496.943410 219.499349 478.307341 216.488281 L 476.761117 217.546224 Q 479.365284 219.011068 481.603240 221.208333 Q 483.841196 223.405599 485.509490 226.131836 Q 487.177784 228.858073 488.276417 231.950521 Q 489.375050 235.042969 489.619191 238.379558 Q 467.972055 244.889975 467.972055 264.339845 Q 467.972055 276.384116 475.947315 284.603518 Q 484.003956 292.822919 495.478566 292.822919 Q 507.197316 292.822919 514.684296 284.522138 Q 522.252655 276.221356 522.252655 263.363283 Z M 107.888709 156.019441 L 107.888709 124.850820 L 59.711624 124.850820 L 59.711624 109.469960 L 93.240271 109.469960 L 93.240271 78.301339 L 59.711624 78.301339 L 59.711624 63.001860 L 107.888709 63.001860 L 107.888709 31.833239 L 4.779982 31.833239 L 4.779982 156.019441 Z M 184.286219 129.815013 L 197.958094 110.853424 L 211.141689 129.815013 L 265.666430 129.815013 L 227.092210 80.173084 L 265.666430 31.833239 L 207.642339 31.833239 L 194.133224 51.038969 L 193.889084 51.120349 L 180.298589 31.833239 L 126.424889 31.833239 L 164.999109 81.637928 L 126.424889 129.815013 Z M 339.948055 69.023995 Q 340.192195 68.779855 342.959122 67.640532 Q 345.726049 66.663969 348.655737 66.663969 Q 353.294409 66.663969 356.061336 69.959868 Q 358.828263 73.255766 358.828263 78.871001 Q 358.828263 81.637928 358.095842 83.916574 Q 357.363420 86.195220 356.020646 87.863514 Q 354.677873 89.531808 352.765438 90.426991 Q 350.853003 91.322173 348.574357 91.322173 Q 343.610164 91.322173 339.948055 86.683501 Z M 364.117977 130.628815 Q 376.243629 130.628815 386.172014 124.281158 Q 396.181780 118.014882 401.634254 106.947174 Q 407.168109 95.716704 407.168109 82.370350 Q 407.168109 66.175688 400.250791 54.294177 Q 393.414853 42.412666 382.916806 36.716052 Q 372.500139 31.019437 360.048967 31.019437 Q 355.166154 31.019437 350.242651 32.036690 Q 345.319148 33.053942 339.948055 35.332588 L 339.948055 4.326728 L 289.655084 4.326728 L 289.655084 129.815013 L 339.948055 129.815013 L 339.948055 122.328033 Q 345.563289 126.478424 351.544735 128.553620 Q 357.526180 130.628815 364.117977 130.628815 Z M 483.321478 131.849518 Q 498.458197 131.849518 510.583849 125.257721 Q 522.790881 118.747304 529.464058 106.214752 Q 536.218615 93.600819 536.218615 77.650298 L 536.218615 74.476469 L 484.786322 74.476469 Q 486.088405 70.814360 488.448432 67.843982 Q 490.808458 64.873605 493.982286 62.798409 Q 497.156114 60.723214 500.940294 59.624581 Q 504.724474 58.525948 509.037625 58.525948 Q 513.025255 58.525948 516.931505 59.258370 Q 520.837755 59.990792 524.296414 61.333565 Q 527.755073 62.676339 530.766141 64.670154 Q 533.777209 66.663969 536.137235 69.186756 L 536.137235 52.015531 Q 527.429553 40.703682 515.629422 35.536039 Q 503.829291 30.368395 488.611192 30.368395 Q 480.147650 30.287015 472.619981 31.955309 Q 465.092311 33.623604 458.744655 36.797432 Q 452.396998 39.971260 447.392115 44.569242 Q 442.387232 49.167224 438.928573 54.904529 Q 435.469914 60.641834 433.679550 67.477771 Q 431.889185 74.313709 431.970565 81.963449 Q 431.970565 96.367746 438.399602 107.679595 Q 444.910019 119.154205 456.547389 125.420481 Q 468.347519 131.849518 483.321478 131.849518 Z M 481.775254 91.647694 L 505.456896 91.647694 Q 505.212755 98.809153 501.916856 103.000233 Q 498.620958 107.191314 493.168484 107.191314 Q 488.285671 107.191314 485.030463 103.040923 Q 481.775254 99.053293 481.775254 92.705637 Z M 656.642820 107.028554 Q 656.642820 96.204986 650.051023 89.613189 Q 643.540606 83.021392 633.286699 83.021392 Q 621.649329 83.021392 612.941646 91.973215 Q 609.035396 88.555246 607.245032 82.817941 Q 605.454667 77.080636 605.454667 69.186756 L 605.454667 31.833239 L 555.161697 31.833239 L 555.161697 129.815013 L 605.454667 129.815013 L 605.454667 108.981679 L 605.780188 108.981679 Q 610.418860 119.642486 617.417558 125.135651 Q 624.416256 130.628815 633.286699 130.628815 Q 643.296465 130.628815 649.969642 123.955638 Q 656.642820 117.363841 656.642820 107.028554 Z M 766.650357 129.815013 L 766.650357 102.308502 L 745.654263 102.308502 L 745.654263 81.068267 Q 745.654263 76.104074 748.054979 73.377837 Q 750.455695 70.651600 755.175747 70.651600 Q 762.255826 70.651600 767.220018 77.650298 L 767.220018 38.831937 Q 764.615852 37.041572 761.319953 35.617419 Q 758.024055 34.193265 754.117804 33.135322 Q 746.142544 31.019437 738.330044 31.019437 Q 726.855434 31.019437 717.008428 35.658109 Q 707.242803 40.215401 701.220667 49.492745 Q 695.361292 58.607328 695.361292 70.895740 L 695.361292 102.308502 L 674.853479 102.308502 L 745.654263 157.809805 L 745.654263 129.815013 Z" transform="scale(0.500000,0.500000) translate(114.000000,284.000000)" fill="#ffffff" opacity="1.000000"></path>
    </g>
</svg>